<svg id="svg2" xmlns:rdf="http://www.w3.org/1999/02/22-rdf-syntax-ns#" xmlns="http://www.w3.org/2000/svg" height="29.807" width="113.67" version="1.1" xmlns:cc="http://creativecommons.org/ns#" xmlns:dc="http://purl.org/dc/elements/1.1/" viewBox="0 0 113.6659 29.807449">
 <defs id="defs4">
  <style id="style6" type="text/css"/>
  <style id="style3003" type="text/css"/>
 </defs>
 <g id="layer1" transform="translate(-404.01 4018.9)">
  <text id="text16553" style="word-spacing:0px;letter-spacing:0px" font-size="24.323px" line-height="125%" y="-3992.8213" x="446.33093" font-family="Pacifico" xml:space="preserve" fill="#529599"><tspan id="tspan16555" y="-3992.8213" x="446.33093">Ciconia</tspan></text>
  <g id="g16557" transform="matrix(.10346 0 0 -.099818 369.82 -3977)">
   <g id="g16559" transform="matrix(.80322 0 0 .80550 331.14 120.72)"></g>
   <path id="path16563" d="m627.91 270.36c0 82.104-66.635 148.69-148.51 148.69-81.866 0-148.5-66.59-148.5-148.69 0-82.337 66.638-148.92 148.5-148.92 81.873 0 148.51 66.588 148.51 148.92z" fill="#529599"/>
   <path id="path16565" d="m549.85 240.53c0-59.67-47.84-78.524-70.451-78.524-22.603 0-70.443 18.854-70.443 78.524 0 59.905 47.84 137.95 70.443 137.95 22.611 0 70.451-78.045 70.451-137.95z" fill="#fff"/>
  </g>
 </g>
</svg>
